# xmcd
#
# Track frame offsets: 
#        150
#        16163
#        38649
#        65624
#        90775
#        118352
#        151083
#        175973
#        196159
#        221954
#        250851
#        259152
#
# Disc length: 3787 seconds
#
# Revision: 1
# Processed by: cddbd v1.5.2PL0 Copyright (c) Steve Scherf et al.
# Submitted via: ExactAudioCopy v0.99pb5
#
DISCID=9d0ec90c
DTITLE=The Hot 8 Brass Band - TOMBSTONE
DYEAR=2013
DGENRE=Funk
TTITLE0=Tombstone Intro
TTITLE1=Wolf Burger
TTITLE2=Homies
TTITLE3=Shot Gun Joe
TTITLE4=Milwaukee Fat
TTITLE5=Eldridge
TTITLE6=We Goin' Make It
TTITLE7=Hot 8 Shit
TTITLE8=Big Girl
TTITLE9=Take It To The House
TTITLE10=Tombstone Outro
TTITLE11=All I Do
EXTD=
EXTT0=
EXTT1=
EXTT2=
EXTT3=
EXTT4=
EXTT5=
EXTT6=
EXTT7=
EXTT8=
EXTT9=
EXTT10=
EXTT11=
PLAYORDER=
